<svg version="1.1" xmlns="http://www.w3.org/2000/svg" viewBox="0 0 905.5 528" width="905.5" height="528">
  <!-- svg-source:excalidraw -->
  
  <defs>
    <style>
      @font-face {
        font-family: "Virgil";
        src: url("https://excalidraw.com/Virgil.woff2");
      }
      @font-face {
        font-family: "Cascadia";
        src: url("https://excalidraw.com/Cascadia.woff2");
      }
    </style>
  </defs>
  <rect x="0" y="0" width="905.5" height="528" fill="#ffffff"></rect><g stroke-linecap="round" transform="translate(352 435) rotate(0 66.5 37.5)"><path d="M-0.44 -1.13 C39.92 -2.09, 78.17 0.59, 131.19 -0.37 M-0.98 0.99 C35.23 0.59, 70.73 1.26, 132.01 -0.65 M133.56 0.9 C131.57 24.05, 130.77 47.71, 132.75 75.1 M132.35 -0.95 C132.48 24.86, 133.73 47.88, 133.82 75.54 M133.76 75.22 C84.68 75.78, 34.43 72.7, 1.3 74.95 M132.56 75.3 C93.49 75.08, 55.69 74.38, -0.98 74.15 M-0.97 74.54 C2.2 58.55, 1.32 39.72, 0.17 0.68 M-0.6 75.87 C-1.11 54.91, -1.19 34.99, -0.98 -0.96" stroke="#000000" stroke-width="1" fill="none"></path></g><g transform="translate(408.5 460) rotate(0 10 12.5)"><text x="10" y="18" font-family="Virgil, Segoe UI Emoji" font-size="20px" fill="#000000" text-anchor="middle" style="white-space: pre;" direction="ltr">m1</text></g><g stroke-linecap="round" transform="translate(345 214) rotate(0 69 44)"><path d="M-0.25 0.1 C39.08 2.08, 78.71 -0.48, 136.1 -1.97 M0.82 0.54 C50.26 0.45, 98.7 1.31, 138.11 0.73 M139.3 -0.05 C138.29 31.05, 137.67 62.53, 138.59 86.76 M137.02 -0.85 C137.68 31.17, 139.2 62.65, 137.77 88.95 M138.17 88.68 C92.52 87.86, 48.19 85.82, 1.74 86.42 M137.02 87.04 C105.16 86.05, 71.75 85.94, 0.24 87.95 M-1.48 86.19 C-0.81 61.81, 1.61 33.4, -0.85 -1.28 M-0.3 89 C0.08 64.94, -1.09 41.21, -0.47 0.73" stroke="#000000" stroke-width="1" fill="none"></path></g><g stroke-linecap="round"><g transform="translate(418 427) rotate(0 -0.7899668723344462 -54.89089445769787)"><path d="M1.2 0.31 C0.88 -17.98, -2.02 -91.78, -2.78 -110.09" stroke="#000000" stroke-width="1.5" fill="none" stroke-dasharray="1.5 7"></path></g><g transform="translate(418 427) rotate(0 -0.7899668723344462 -54.89089445769787)"><path d="M9.11 -81.96 C4.29 -89.09, 2.58 -93.33, -2.34 -111.15" stroke="#000000" stroke-width="1.5" fill="none" stroke-dasharray="1.5 5"></path></g><g transform="translate(418 427) rotate(0 -0.7899668723344462 -54.89089445769787)"><path d="M-11.4 -81.14 C-11.57 -88.67, -8.63 -93.09, -2.34 -111.15" stroke="#000000" stroke-width="1.5" fill="none" stroke-dasharray="1.5 5"></path></g></g><g transform="translate(435 360) rotate(0 62.5 12.5)"><text x="0" y="18" font-family="Virgil, Segoe UI Emoji" font-size="20px" fill="#000000" text-anchor="start" style="white-space: pre;" direction="ltr">inst창ncia de:</text></g><g transform="translate(355 245.5) rotate(0 59 12.5)"><text x="59" y="18" font-family="Virgil, Segoe UI Emoji" font-size="20px" fill="#000000" text-anchor="middle" style="white-space: pre;" direction="ltr">MinhaClasse</text></g><g stroke-linecap="round"><g transform="translate(336 258) rotate(0 -92.35123724639419 3.091901597073303)"><path d="M0.21 1.15 C-30.5 1.75, -154.13 3.85, -184.91 4.31 M-1.14 0.7 C-31.42 1.39, -151.94 4.83, -182.68 5.48" stroke="#000000" stroke-width="1" fill="none"></path></g><g transform="translate(336 258) rotate(0 -92.35123724639419 3.091901597073303)"><path d="M-152.84 -7.01 C-162.73 -3.58, -170.36 0.83, -180.75 6.75 M-154.89 -5.62 C-160.79 -3.93, -167.12 -1.76, -183.08 6.19" stroke="#000000" stroke-width="1" fill="none"></path></g><g transform="translate(336 258) rotate(0 -92.35123724639419 3.091901597073303)"><path d="M-152.32 13.51 C-162.46 11.88, -170.21 11.23, -180.75 6.75 M-154.37 14.89 C-160.35 12.37, -166.79 10.32, -183.08 6.19" stroke="#000000" stroke-width="1" fill="none"></path></g></g><g transform="translate(197 278) rotate(0 64 12.5)"><text x="0" y="18" font-family="Virgil, Segoe UI Emoji" font-size="20px" fill="#000000" text-anchor="start" style="white-space: pre;" direction="ltr">subclasse de</text></g><g stroke-linecap="round" transform="translate(342 10) rotate(0 70 44)"><path d="M0.43 -0.68 C32.44 -0.62, 64.34 -0.14, 141.89 -0.07 M0.38 -0.95 C39.13 -0.38, 79.42 -1.17, 139.81 -0.15 M139.01 -1.42 C141.13 19.04, 138.23 37.5, 140.03 86.15 M140.61 -0.56 C139.91 22.15, 140.31 45.49, 140.03 88.85 M138.17 86.51 C90.6 86.19, 42.21 86.83, -1.78 87.82 M139.55 88.41 C103.34 88.06, 66.92 89.02, -0.51 87.59 M-1.02 88.59 C2.23 71.22, -0.99 50.68, 0.3 -1.62 M-0.86 87.04 C-0.28 58.94, 0.53 27.5, -0.13 0.04" stroke="#000000" stroke-width="1" fill="none"></path></g><g transform="translate(390.5 41.5) rotate(0 21.5 12.5)"><text x="21.5" y="18" font-family="Virgil, Segoe UI Emoji" font-size="20px" fill="#000000" text-anchor="middle" style="white-space: pre;" direction="ltr">type</text></g><g stroke-linecap="round"><g transform="translate(412.1146133317584 203) rotate(0 -1.6942934422343114 -46.17945770919323)"><path d="M-0.11 -0.48 C-0.54 -15.61, -2.51 -76.71, -3.28 -91.88" stroke="#000000" stroke-width="1.5" fill="none" stroke-dasharray="1.5 7"></path></g><g transform="translate(412.1146133317584 203) rotate(0 -1.6942934422343114 -46.17945770919323)"><path d="M7.31 -62.57 C5.78 -71.78, 3.64 -78.07, -3.44 -92.3" stroke="#000000" stroke-width="1.5" fill="none" stroke-dasharray="1.5 5"></path></g><g transform="translate(412.1146133317584 203) rotate(0 -1.6942934422343114 -46.17945770919323)"><path d="M-13.2 -61.74 C-9.74 -71.13, -6.91 -77.63, -3.44 -92.3" stroke="#000000" stroke-width="1.5" fill="none" stroke-dasharray="1.5 5"></path></g></g><g transform="translate(425.5 147.5) rotate(0 62.5 12.5)"><text x="0" y="18" font-family="Virgil, Segoe UI Emoji" font-size="20px" fill="#000000" text-anchor="start" style="white-space: pre;" direction="ltr">inst창ncia de:</text></g><g stroke-linecap="round" transform="translate(10 225) rotate(0 69 39)"><path d="M-1.37 0.48 C51.5 -2.57, 108.53 -0.14, 139.78 1.54 M0.64 0.42 C40 0.3, 77.1 -0.44, 138.42 0.25 M138.91 -0.18 C136.82 22.98, 138.84 43.07, 136.92 79.2 M137.27 0.53 C138.9 16.54, 137.62 32.85, 137.69 78.36 M137.45 78.7 C96.48 77.78, 52.54 77.03, -1.42 76.51 M138.75 77.32 C106.13 78.99, 75.76 79.04, 0.85 77.12 M-0.16 76.59 C-0.82 62.53, -0.89 43.11, -0.19 0.74 M0.74 77.3 C1.29 50.83, 0.47 21.48, -0.3 0.25" stroke="#000000" stroke-width="1" fill="none"></path></g><g transform="translate(48 251.5) rotate(0 31 12.5)"><text x="31" y="18" font-family="Virgil, Segoe UI Emoji" font-size="20px" fill="#000000" text-anchor="middle" style="white-space: pre;" direction="ltr">object</text></g><g stroke-linecap="round" transform="translate(643 220) rotate(0 89 40.5)"><path d="M1.22 -1.17 C46.89 0.82, 94.69 1, 179.98 0.03 M-0.35 -0.98 C48.68 -0.96, 99.48 0.15, 177.74 -0.4 M178.18 -0.49 C179.11 27.62, 176.84 60.37, 179.23 80.58 M177.37 0.5 C177.16 20.74, 177.23 40.09, 177.28 81.72 M177.08 81.36 C120.9 81.83, 66.84 84.35, -1.01 82.86 M177.22 81.54 C107.4 83.01, 38.55 81.72, 0.96 81.02 M-0.08 82.17 C0.94 56.28, -1.32 32.15, -1.79 -1.03 M0.77 80.37 C-0.49 58.67, 0.06 36.93, 0.75 0.69" stroke="#000000" stroke-width="1" fill="none"></path></g><g stroke-linecap="round"><g transform="translate(632 259.74463962287064) rotate(0 -69.37490334212782 -1.7693429506374514)"><path d="M0.01 -0.12 C-23.08 -0.28, -115.59 -1.43, -138.76 -1.61 M-1.45 -1.22 C-24.12 -1.68, -113.91 -3.12, -136.44 -3.42" stroke="#000000" stroke-width="1" fill="none"></path></g><g transform="translate(632 259.74463962287064) rotate(0 -69.37490334212782 -1.7693429506374514)"><path d="M-108.3 -14.52 C-115.07 -12.21, -122.32 -9.32, -135.92 -4.86 M-107.26 -13.72 C-118.45 -10.6, -129.51 -6.24, -135.52 -3.93" stroke="#000000" stroke-width="1" fill="none"></path></g><g transform="translate(632 259.74463962287064) rotate(0 -69.37490334212782 -1.7693429506374514)"><path d="M-108.6 6 C-115.18 2.59, -122.34 -0.25, -135.92 -4.86 M-107.57 6.8 C-118.67 2.29, -129.61 -0.98, -135.52 -3.93" stroke="#000000" stroke-width="1" fill="none"></path></g></g><g transform="translate(656 248) rotate(0 76 12.5)"><text x="76" y="18" font-family="Virgil, Segoe UI Emoji" font-size="20px" fill="#000000" text-anchor="middle" style="white-space: pre;" direction="ltr">MinhaSubClasse</text></g><g stroke-linecap="round" transform="translate(664 435) rotate(0 79 41.5)"><path d="M0.11 0.53 C64.35 -2.78, 125.41 -0.55, 159.92 1.63 M0.36 -0.17 C62.3 0.09, 123.97 2, 157.74 -0.08 M159.17 1.09 C155.83 17.43, 157.81 36.87, 159.21 84 M158.76 -0.34 C158.65 27.54, 158.31 54.99, 158.31 82.11 M158.91 84.95 C100.33 82.76, 44.05 84.37, -1.52 81.49 M158.74 83.18 C119.57 83.13, 80.59 83.24, 0.09 83.98 M0.09 83.16 C1.62 64.33, 0.3 48.21, -0.53 -0.56 M0.48 83.98 C0.13 66.32, -1.21 47.83, -0.33 0.09" stroke="#000000" stroke-width="1" fill="none"></path></g><g transform="translate(728.5 464) rotate(0 14.5 12.5)"><text x="14.5" y="18" font-family="Virgil, Segoe UI Emoji" font-size="20px" fill="#000000" text-anchor="middle" style="white-space: pre;" direction="ltr">m2</text></g><g stroke-linecap="round"><g transform="translate(754 427) rotate(0 -1.527256247401283 -54.88631830513475)"><path d="M-1.02 -0.83 C-1.38 -19.18, -1.89 -91.02, -2.04 -108.95" stroke="#000000" stroke-width="1.5" fill="none" stroke-dasharray="1.5 7"></path></g><g transform="translate(754 427) rotate(0 -1.527256247401283 -54.88631830513475)"><path d="M7.07 -80.9 C5.02 -89.46, 2.73 -99.14, -2.31 -108.03" stroke="#000000" stroke-width="1.5" fill="none" stroke-dasharray="1.5 5"></path></g><g transform="translate(754 427) rotate(0 -1.527256247401283 -54.88631830513475)"><path d="M-13.45 -80.74 C-9.16 -89.18, -5.1 -98.9, -2.31 -108.03" stroke="#000000" stroke-width="1.5" fill="none" stroke-dasharray="1.5 5"></path></g></g><g transform="translate(770.5 366.5) rotate(0 62.5 12.5)"><text x="0" y="18" font-family="Virgil, Segoe UI Emoji" font-size="20px" fill="#000000" text-anchor="start" style="white-space: pre;" direction="ltr">inst창ncia de:</text></g><g stroke-linecap="round"><g transform="translate(733 206) rotate(0 -117.24502682983876 -75.22797689704669)"><path d="M0.38 -0.09 C-4.37 -23.19, 10.48 -113.61, -28.73 -137.75 C-67.94 -161.88, -200.86 -143.77, -234.87 -144.89" stroke="#000000" stroke-width="1.5" fill="none" stroke-dasharray="1.5 7"></path></g><g transform="translate(733 206) rotate(0 -117.24502682983876 -75.22797689704669)"><path d="M-207.36 -157.72 C-214.48 -154.6, -224.15 -147.9, -235.65 -146.65" stroke="#000000" stroke-width="1.5" fill="none" stroke-dasharray="1.5 5"></path></g><g transform="translate(733 206) rotate(0 -117.24502682983876 -75.22797689704669)"><path d="M-206.37 -137.22 C-213.91 -139.86, -223.86 -138.92, -235.65 -146.65" stroke="#000000" stroke-width="1.5" fill="none" stroke-dasharray="1.5 5"></path></g></g><g transform="translate(684.5 32.5) rotate(0 62.5 12.5)"><text x="0" y="18" font-family="Virgil, Segoe UI Emoji" font-size="20px" fill="#000000" text-anchor="start" style="white-space: pre;" direction="ltr">inst창ncia de:</text></g><g transform="translate(498 277.5) rotate(0 64 12.5)"><text x="0" y="18" font-family="Virgil, Segoe UI Emoji" font-size="20px" fill="#000000" text-anchor="start" style="white-space: pre;" direction="ltr">subclasse de</text></g></svg>