<svg version="1.1" xmlns="http://www.w3.org/2000/svg" viewBox="0 0 904 475.6182437863891" width="904" height="475.6182437863891">
  <!-- svg-source:excalidraw -->
  
  <defs>
    <style>
      @font-face {
        font-family: "Virgil";
        src: url("https://excalidraw.com/Virgil.woff2");
      }
      @font-face {
        font-family: "Cascadia";
        src: url("https://excalidraw.com/Cascadia.woff2");
      }
    </style>
  </defs>
  <rect x="0" y="0" width="904" height="475.6182437863891" fill="#ffffff"></rect><g stroke-linecap="round" transform="translate(505 86.11824378638909) rotate(0 70 44)"><path d="M0.38 -1.01 C43.48 -0.47, 90.02 0.47, 139.38 1.63 M0.26 -0.28 C53.09 -1.76, 105.71 -0.99, 139.04 -0.02 M139.16 -1.96 C139.09 25.96, 141.8 51.9, 139.72 87.74 M139.27 0.55 C140.62 27.73, 140.69 56.47, 139.4 88.59 M139.14 86.44 C89.53 86.17, 37.13 87.18, -1.61 86.29 M139.96 88.36 C87.58 87.87, 34.84 89.69, 0.24 87.26 M-0.15 86.91 C-2.15 52.85, -1.43 22.53, 1.42 1.53 M0.94 87.43 C-0.59 66.73, -0.73 47.98, 0.93 -0.49" stroke="#000000" stroke-width="1" fill="none"></path></g><g transform="translate(553.5 117.61824378638909) rotate(0 21.5 12.5)"><text x="21.5" y="18" font-family="Virgil, Segoe UI Emoji" font-size="20px" fill="#000000" text-anchor="middle" style="white-space: pre;" direction="ltr">type</text></g><g stroke-linecap="round" transform="translate(173 301.1182437863891) rotate(0 69 39)"><path d="M-1.04 -1.49 C32.36 0.15, 62.11 2.32, 139.56 -1.63 M0.19 -0.75 C51.22 0.4, 101.69 0.36, 138.05 0.34 M136.79 -0.86 C139.17 22.2, 137.39 47.61, 138.35 79.38 M138.01 -0.23 C137.51 27.22, 136.83 53.94, 138.63 78.86 M138.36 77.32 C106.7 77.25, 76.17 75.21, 1.54 77.54 M138.36 77.05 C88.88 79.36, 39.2 77.76, 0.8 78.96 M-1.3 76.26 C-0.52 58.07, 1.48 36.95, -1.37 1.59 M0.11 77.1 C-0.76 57.41, 0.2 34.87, 0.16 -0.09" stroke="#000000" stroke-width="1" fill="none"></path></g><g transform="translate(211 327.6182437863891) rotate(0 31 12.5)"><text x="31" y="18" font-family="Virgil, Segoe UI Emoji" font-size="20px" fill="#000000" text-anchor="middle" style="white-space: pre;" direction="ltr">object</text></g><g stroke-linecap="round"><g transform="translate(489 126.61824378638909) rotate(0 -126.62208364774534 77.60575408068473)"><path d="M-0.3 -0.61 C-38.35 0.34, -186.66 -21.03, -228.52 6.09 C-270.37 33.2, -247.51 135.95, -251.43 162.09 M1.75 1.69 C-36.4 2.73, -186.94 -19.72, -229.21 7.15 C-271.49 34.02, -248.12 136.79, -251.9 162.92" stroke="#000000" stroke-width="1" fill="none"></path></g><g transform="translate(489 126.61824378638909) rotate(0 -126.62208364774534 77.60575408068473)"><path d="M-264.17 135.92 C-261.41 143.93, -258.24 150.67, -252.09 162.88 M-262.2 134.41 C-259.03 144.26, -255.67 154.17, -252.87 162.51" stroke="#000000" stroke-width="1" fill="none"></path></g><g transform="translate(489 126.61824378638909) rotate(0 -126.62208364774534 77.60575408068473)"><path d="M-243.66 135.19 C-246.68 143.35, -249.29 150.31, -252.09 162.88 M-241.69 133.68 C-245.5 143.91, -249.11 154.07, -252.87 162.51" stroke="#000000" stroke-width="1" fill="none"></path></g></g><g transform="translate(268 147.6182437863891) rotate(0 64 12.5)"><text x="0" y="18" font-family="Virgil, Segoe UI Emoji" font-size="20px" fill="#000000" text-anchor="start" style="white-space: pre;" direction="ltr">subclasse de</text></g><g stroke-linecap="round"><g transform="translate(323 333.6182437863891) rotate(0 133.3892259739771 -67.32335250277481)"><path d="M0.82 -0.68 C41.88 -0.4, 204.45 26.25, 246.18 1.89 C287.92 -22.46, 250.53 -122.28, 251.22 -146.79" stroke="#000000" stroke-width="1.5" fill="none" stroke-dasharray="1.5 7"></path></g><g transform="translate(323 333.6182437863891) rotate(0 133.3892259739771 -67.32335250277481)"><path d="M264.92 -120.41 C261.58 -127.7, 256.21 -136.64, 252.59 -148.16" stroke="#000000" stroke-width="1.5" fill="none" stroke-dasharray="1.5 5"></path></g><g transform="translate(323 333.6182437863891) rotate(0 133.3892259739771 -67.32335250277481)"><path d="M244.69 -116.98 C247.12 -125.38, 247.52 -135.31, 252.59 -148.16" stroke="#000000" stroke-width="1.5" fill="none" stroke-dasharray="1.5 5"></path></g></g><g transform="translate(414 364.6182437863891) rotate(0 60.5 12.5)"><text x="0" y="18" font-family="Virgil, Segoe UI Emoji" font-size="20px" fill="#000000" text-anchor="start" style="white-space: pre;" direction="ltr">instância de</text></g><g stroke-linecap="round"><g transform="translate(656 127.61824378638909) rotate(0 11.977176566323465 -59.17097420528253)"><path d="M0.56 -0.72 C14.87 -2.75, 70.75 4.32, 85.45 -13 C100.16 -30.31, 112.37 -88.1, 88.79 -104.6 C65.22 -121.1, -28.21 -119.94, -56.02 -111.99 C-83.83 -104.05, -74.42 -66.34, -78.09 -56.91" stroke="#000000" stroke-width="1.5" fill="none" stroke-dasharray="1.5 7"></path></g><g transform="translate(656 127.61824378638909) rotate(0 11.977176566323465 -59.17097420528253)"><path d="M-87.35 -85.06 C-84.17 -78.42, -81.35 -70.34, -76.41 -55.39" stroke="#000000" stroke-width="1.5" fill="none" stroke-dasharray="1.5 5"></path></g><g transform="translate(656 127.61824378638909) rotate(0 11.977176566323465 -59.17097420528253)"><path d="M-66.89 -83.47 C-69.2 -77.17, -71.88 -69.51, -76.41 -55.39" stroke="#000000" stroke-width="1.5" fill="none" stroke-dasharray="1.5 5"></path></g></g><g transform="translate(773 56.61824378638909) rotate(0 60.5 12.5)"><text x="0" y="18" font-family="Virgil, Segoe UI Emoji" font-size="20px" fill="#000000" text-anchor="start" style="white-space: pre;" direction="ltr">instância de</text></g><g stroke-linecap="round"><g transform="translate(158 343.6182437863891) rotate(0 -58.82908062388759 43.79465459274047)"><path d="M-1.18 -0.42 C-18.7 0.91, -84.78 -6.22, -104 8.69 C-123.21 23.6, -114.62 75.77, -116.44 89.04 M0.41 -1.68 C-17.38 -0.76, -85.3 -8.41, -104.94 6.93 C-124.58 22.28, -115.9 76.69, -117.44 90.38" stroke="#000000" stroke-width="1" fill="none"></path></g><g transform="translate(158 343.6182437863891) rotate(0 -58.82908062388759 43.79465459274047)"><path d="M-128.84 62.36 C-122.58 72.83, -119.42 86.4, -118.56 90.18 M-127.62 63.09 C-123.08 72.58, -119.43 84.28, -118.24 90.85" stroke="#000000" stroke-width="1" fill="none"></path></g><g transform="translate(158 343.6182437863891) rotate(0 -58.82908062388759 43.79465459274047)"><path d="M-108.32 62.04 C-110.2 72.44, -115.18 86.13, -118.56 90.18 M-107.11 62.77 C-110.68 72.28, -115.16 84.11, -118.24 90.85" stroke="#000000" stroke-width="1" fill="none"></path></g></g><g transform="translate(10 440.6182437863891) rotate(0 37.5 12.5)"><text x="0" y="18" font-family="Virgil, Segoe UI Emoji" font-size="20px" fill="#000000" text-anchor="start" style="white-space: pre;" direction="ltr">Ninguém</text></g><g transform="translate(11 305.6182437863891) rotate(0 64 12.5)"><text x="0" y="18" font-family="Virgil, Segoe UI Emoji" font-size="20px" fill="#000000" text-anchor="start" style="white-space: pre;" direction="ltr">subclasse de</text></g></svg>